<?xml version="1.0" standalone="no"?>
<!DOCTYPE svg PUBLIC "-//W3C//DTD SVG 20010904//EN"
 "http://www.w3.org/TR/2001/REC-SVG-20010904/DTD/svg10.dtd">
<svg version="1.0" xmlns="http://www.w3.org/2000/svg"
 width="400.000000pt" height="400.000000pt" viewBox="0 0 400.000000 400.000000"
 preserveAspectRatio="xMidYMid meet">
<metadata>
Created by potrace 1.16, written by Peter Selinger 2001-2019
</metadata>
<g transform="translate(0.000000,400.000000) scale(0.100000,-0.100000)"
fill="#000000" stroke="none">
<path d="M1767 3940 c-191 -20 -472 -102 -639 -186 -317 -160 -567 -380 -766
-676 -146 -217 -260 -513 -297 -773 -28 -194 -21 -488 15 -666 167 -810 790
-1404 1615 -1540 106 -18 464 -18 570 0 732 120 1312 605 1545 1289 82 243
113 483 98 760 -31 547 -312 1066 -768 1417 -220 169 -536 305 -830 356 -133
23 -407 33 -543 19z m640 -1077 c4 -9 7 -50 7 -92 l1 -75 79 -13 c267 -45 456
-267 456 -533 0 -186 -79 -342 -223 -443 -126 -88 -255 -120 -399 -98 -260 39
-445 246 -464 520 -15 202 -132 323 -314 325 -68 1 -81 -3 -140 -35 -72 -40
-132 -108 -152 -174 -7 -22 -13 -70 -13 -106 0 -54 5 -76 33 -130 49 -95 151
-167 239 -168 l32 -1 -1 85 c-1 46 0 86 2 88 3 3 15 8 28 12 20 6 43 -13 173
-142 82 -81 149 -155 149 -162 0 -8 -66 -81 -147 -163 -120 -121 -153 -148
-172 -146 -32 4 -43 43 -35 124 l6 60 -78 12 c-366 55 -571 448 -408 781 89
180 280 301 479 301 192 0 362 -93 467 -254 49 -76 77 -167 88 -287 12 -137
59 -218 161 -274 49 -27 62 -30 149 -30 80 0 102 4 138 23 58 31 114 88 143
148 32 66 33 187 2 256 -41 91 -150 173 -239 180 l-39 3 -2 -84 c-1 -69 -5
-87 -19 -98 -10 -7 -22 -13 -27 -13 -19 0 -307 295 -307 314 0 12 58 77 143
163 114 113 149 143 171 143 16 0 29 -7 33 -17z"/>
</g>
</svg>
